<svg width="310" height="278" viewBox="0 0 310 278" fill="none" xmlns="http://www.w3.org/2000/svg">
<path d="M108.703 277.595C54.328 277.595 0.719073 251.174 0.719073 170.377V4.95531H52.4134V170.377C52.4134 214.796 73.4741 227.815 108.703 227.815C143.166 227.815 164.992 214.796 164.992 170.377V4.95531H216.687V170.377C216.687 250.025 164.609 277.595 108.703 277.595ZM261.437 199.096L250.716 86.9004V0.360272H300.495V86.9004L289.774 199.096H261.437ZM275.605 277.595C256.459 277.595 242.674 263.044 242.674 245.047C242.674 226.667 256.459 212.116 275.605 212.116C294.369 212.116 309.303 226.667 309.303 245.047C309.303 263.044 294.369 277.595 275.605 277.595Z" fill="#CE2C31"/>
</svg>
